# xmcd
#
# Track frame offsets:
#	150
#	9197
#	61115
#	62880
#	73510
#	111746
#	112662
#	135109
#	140612
#	249432
#	252001
#
# Disc length: 3386 seconds
# Revision: 0
# Processed by: cddbd v1.5.2PL0 Copyright (c) Steve Scherf et al.
# Submitted via: dBpowerAMP V12.0
#
DISCID=8d0d380b
DTITLE=Hale Dwoskin - The Sedona Method Course CD 06
DYEAR=2007
DGENRE=Speech
TTITLE0=The Security and Survival Program
TTITLE1=Release on Wanting Security
TTITLE2=Summary of Release
TTITLE3=The Separation Program
TTITLE4=Release on Wanting to Be Separate
TTITLE5=Summary of Release
TTITLE6=The Six Steps
TTITLE7=Intro to Release on Wanting
TTITLE8=Release on Wanting
TTITLE9=Final Comments
TTITLE10=Conclusion
EXTD=
EXTT0=
EXTT1=
EXTT2=
EXTT3=
EXTT4=
EXTT5=
EXTT6=
EXTT7=
EXTT8=
EXTT9=
EXTT10=
PLAYORDER=
